<svg xmlns="http://www.w3.org/2000/svg" viewBox="0 0 256 256">
  <title>Friendly chicken</title>
  <desc>A bright chicken standing with a rounded body, wing, comb, beak, and feet.</desc>
  <g stroke="#173B5C" stroke-width="10" stroke-linecap="round" stroke-linejoin="round">
    <ellipse cx="125" cy="142" rx="70" ry="58" fill="#F59E0B"/>
    <circle cx="168" cy="83" r="37" fill="#F59E0B"/>
    <path d="M145 52c2-19 17-26 26-10 8-17 26-10 25 9" fill="#EC4899"/>
    <path d="M201 87l30 14-30 14z" fill="#F97316"/>
    <circle cx="178" cy="79" r="5" fill="#173B5C" stroke="none"/>
    <path d="M94 128c22 4 36 21 35 44-21 0-39-14-44-33" fill="#FFFFFF"/>
    <path d="M63 122L28 100l12 45z" fill="#F97316"/>
    <path d="M100 195v28m-17 0h34m42-28v28m-17 0h34" fill="none"/>
  </g>
</svg>
