<svg xmlns="http://www.w3.org/2000/svg" viewBox="0 0 256 256" role="img" aria-labelledby="bread-title bread-desc">
  <title>Bread Loaf</title>
  <desc>A soft white bread loaf with a golden crust.</desc>
  <title id="bread-title">Bread loaf</title>
  <desc id="bread-desc">A soft white bread loaf with a golden crust and three score marks.</desc>
  <g stroke="#173B5C" stroke-width="10" stroke-linecap="round" stroke-linejoin="round">
    <path fill="#F59E0B" d="M42 202V126c0-30 19-51 45-51 16 0 29 7 39 18 12-18 30-29 51-26 24 3 37 24 37 48v87Z"/>
    <path fill="#FFFFFF" d="M61 197v-67c0-21 13-35 31-35 14 0 25 9 31 22 9-18 23-29 41-27 19 2 31 18 31 39v68Z"/>
    <path fill="none" d="m80 127 21 18M119 114l23 20M158 111l23 19M42 202h172"/>
  </g>
</svg>
