<svg xmlns="http://www.w3.org/2000/svg" viewBox="0 0 256 256" role="img" aria-labelledby="carrot-title carrot-desc">
  <title>Carrot</title>
  <desc>A bright orange carrot with leafy green tops.</desc>
  <title id="carrot-title">Carrot</title>
  <desc id="carrot-desc">A bright orange carrot with three leafy green tops.</desc>
  <g stroke="#173B5C" stroke-width="10" stroke-linecap="round" stroke-linejoin="round">
    <path fill="#F97316" d="M128 224C98 181 81 138 78 84c34 5 65 5 100 0-5 57-20 101-50 140Z"/>
    <path fill="none" d="M105 114c16 7 31 7 47 0M97 148c16 7 32 7 49 0M105 181c14 6 28 6 42 0"/>
    <path fill="#10B981" d="M109 82C80 75 63 54 61 29c27 0 48 14 58 38Z"/>
    <path fill="#10B981" d="M126 82c-9-29 2-53 24-65 12 24 8 48-10 67Z"/>
    <path fill="#10B981" d="M143 84c7-29 29-45 53-43-3 27-22 45-47 51Z"/>
  </g>
</svg>
