<svg xmlns="http://www.w3.org/2000/svg" viewBox="0 0 256 256" role="img" aria-labelledby="egg-title egg-desc">
  <title>Fried Egg</title>
  <desc>A fried egg with a sunny golden yolk.</desc>
  <title id="egg-title">Fried egg</title>
  <desc id="egg-desc">A simple fried egg with a sunny golden yolk.</desc>
  <g stroke="#173B5C" stroke-width="10" stroke-linecap="round" stroke-linejoin="round">
    <path fill="#FFFFFF" d="M127 37c19 1 31 23 42 35 14 14 39 19 47 41 7 22-10 40-25 50-16 11-29 31-52 32-24 1-39-18-58-27-22-10-40-34-32-56 8-22 35-29 49-47 10-14 14-29 29-28Z"/>
    <circle fill="#F59E0B" cx="130" cy="125" r="35"/>
    <path fill="#F97316" d="M108 131c8 12 27 17 42 7 6-4 10-10 12-17-2 21-19 36-40 36-15 0-28-9-34-22Z"/>
  </g>
</svg>
