<svg viewBox="0 0 256 256" role="img" aria-labelledby="mango-title mango-desc">
  <title>Mango</title>
  <desc>A plump mango for recognising fruit shapes and building vocabulary.</desc>
  <title id="mango-title">Mango</title>
  <desc id="mango-desc">A plump orange mango with a leafy green top and bold outline.</desc>
  <g fill="none" stroke="#173B5C" stroke-width="10" stroke-linecap="round" stroke-linejoin="round">
    <path fill="#F97316" d="M131 58c42 0 72 31 69 72-3 48-43 86-94 86-35 0-57-23-54-58 4-55 33-100 79-100Z"/>
    <path d="M128 60c4-14 14-24 27-30"/>
    <path fill="#10B981" d="M146 40c18-17 42-18 57-3-19 17-40 20-57 12-4-2-4-6 0-9Z"/>
    <path fill="#FFFFFF" stroke="none" d="M84 109c-11 19-14 43-6 60"/>
  </g>
</svg>
